<svg width="380" height="380" viewBox="0 0 380 380" fill="none" xmlns="http://www.w3.org/2000/svg">
<g transform="translate(36 33)">
<path d="M189.968 280.176L188.468 284.176L188.448 284.229L188.416 284.277L183.416 291.777L183.395 291.811L183.367 291.839L177.367 298.339L177.348 298.36L177.325 298.38L170.291 304.409L170.252 304.432L164.252 307.932L164.23 307.944L164.207 307.955L158.707 310.455L158.688 310.464L158.668 310.471L151.668 312.971L151.616 312.989L151.562 312.996L143.531 314H131.455L131.41 313.992L125.91 312.992L125.857 312.982L125.808 312.962L119.808 310.462L119.792 310.455L114.749 307.934L110.223 304.916L110.195 304.897L110.171 304.876L106.171 301.376L106.144 301.353L103.12 297.825L103.066 297.763L103.036 297.686L101.036 292.686L100.475 291.281L101.762 292.074L108.242 296.062L114.699 299.539L123.623 302.514L129.556 303.502L137.998 303.999L145.929 303.503L154.332 301.525L161.776 298.052L169.725 293.58L176.709 288.593L182.7 284.1L182.708 284.095L182.716 284.089L189.216 279.589L190.529 278.68L189.968 280.176ZM199.144 0.0214844L204.144 1.52148L204.185 1.5332L208.224 3.55273L208.275 3.5791L208.32 3.61621L211.32 6.11621L211.355 6.14453L211.384 6.17969L213.884 9.17969L213.944 9.25195L213.975 9.3418L215.396 13.6045L219.658 15.0254L219.672 15.0303L219.686 15.0361L224.686 17.0361L224.734 17.0547L224.777 17.084L229.277 20.084L229.287 20.0898V20.0908L234.287 23.5908L234.293 23.5947L234.3 23.5996L238.315 26.6113L238.329 26.624L242.329 30.124L242.352 30.1436L242.372 30.165L246.872 35.165L246.88 35.1748L249.88 38.6748L249.885 38.6807L249.891 38.6875L253.891 43.6875L253.908 43.71L253.924 43.7354L256.429 47.7432L259.429 52.7432L259.438 52.7607L262.438 58.2607L262.448 58.2783L262.457 58.2969L264.457 62.7969L264.467 62.8193L264.475 62.8418L266.475 68.8418L266.482 68.8662L266.488 68.8916L267.401 73H278.041L284.082 74.0068L284.09 74.0078L284.098 74.0098L289.098 75.0098L289.164 75.0225L289.224 75.0527L293.261 77.0713L293.294 77.0957L298.794 81.0957L298.842 81.1299L298.88 81.1748L301.88 84.6748L301.927 84.7305L301.957 84.7969L305.957 93.7969L305.979 93.8477L305.99 93.9023L306.996 98.9316L306.999 98.9619L307.499 105.462L307.5 105.48V111.073L307.479 111.144L305.988 116.11L305.493 119.082L305.485 119.13L305.468 119.176L303.968 123.176L303.963 123.189L303.957 123.203L301.957 127.703L301.936 127.751L297.904 133.294L297.9 133.3L294.9 137.3L294.868 137.342L290.829 140.876L290.805 140.897L290.777 140.916L286.251 143.934L281.224 146.447L281.207 146.455L281.19 146.462L273.273 149.722L275.397 152.695L278.38 156.175L278.399 156.197L278.416 156.223L280.42 159.229L280.424 159.235L282.914 163.221L286.4 168.2L289.4 172.2L289.438 172.25L289.462 172.308L291.957 178.296L293.955 182.292L293.962 182.308L296.462 188.308L298.47 193.829L298.475 193.843L298.479 193.856L299.979 198.856L300 198.927V214.263L299.301 213.959L288.621 209.315L289.495 215.43L289.498 215.449L289.499 215.469L290 223.484V232.518L289.999 232.535L289.499 239.535L289.495 239.584L289.482 239.632L287.982 245.132L287.974 245.163L287.962 245.192L285.462 251.192L285.461 251.191L283.464 256.186L283.456 256.205L283.447 256.224L281.437 260.245L281.424 260.265L278.937 264.242L276.438 268.743L276.421 268.772L273.4 272.8L273.379 272.828L263.84 282.367L263.825 282.38L263.301 282.828L251.763 289.56L245.272 293.054L239.808 295.538L233.847 298.021L229.415 299.006L224.45 299.503L224 299.548V300.5H218.043L209.587 301.992L209.544 302H199.947L199.896 301.989L192.896 300.489L191.688 300.23L192.735 299.576L200.723 294.584L208.196 289.601L211.675 286.62L211.68 286.616L214.662 284.131L217.626 281.167L221.1 276.7L224.082 272.724L226.065 269.252L228.065 265.752L228.07 265.743L228.076 265.735L230.553 261.772L231.536 259.314L232.5 259.5V272.581L232.475 272.658L231.472 275.667L231.468 275.676L229.974 279.657L228.975 282.658L228.963 282.691L228.947 282.724L226.487 287.644L228.27 287.049L231.709 284.593L231.729 284.58L231.748 284.568L237.72 281.084L241.673 278.12L250.125 269.668L254.09 264.711L257.071 259.743L260.561 253.762L263.03 248.82L264.514 243.381L265.5 238.451V231L266.447 230.776L268.459 234.8L268.468 234.824L269.968 238.824L269.987 238.875L270.495 242.43L270.501 242.474L270.5 242.52L270.02 255H270.691L273.053 250.276L273.062 250.257L275.55 245.777L276.513 243.371L277.005 239.93L277.01 239.896L277.02 239.862L278 236.431V214.582L277.025 211.658L277.023 211.651L277.021 211.644L275.538 206.701L273.565 203.248L273.559 203.236L273.553 203.224L268.442 193.003L269.697 193.54L273.197 195.04H273.196L277.176 196.532L277.2 196.541L280.19 198.036L283.158 199.025L283.191 199.037L283.224 199.053L286.428 200.654L286.007 195.603L284.536 191.19L282.045 186.208L282.038 186.192L279.54 180.197L278.043 176.704L276.06 172.737L273.076 167.765L270.595 163.795L265.62 157.825L262.614 154.318V154.317L255.614 145.817L255.16 145.267L255.834 145.028L264.309 142.037L270.772 139.053L276.721 135.583L283.695 130.602L287.642 127.149L290.601 123.696L292.584 120.723L294.535 117.795L295.515 113.879L296.5 109.444V99.0361L296.01 95.6045L294.543 90.7158L292.598 87.7979L290.657 85.3721L287.763 83.4424L284.327 81.9697L280.931 81H270.556L266.155 81.9775L262.704 83.457L258.734 85.4414L252.769 88.9219L247.285 92.4102L243.34 95.3701L239.879 99.3242L239.88 99.3252L236.897 102.805L234.443 106.239L232.979 110.145L231 118.062V122.457L230.105 121.307L226.605 116.807L226.562 116.751L226.536 116.686L225.536 114.186L225.5 114.097V109.935L225.517 109.871L227.381 102.877L209.449 99H205.604L202.197 100.46L202.183 100.466L202.168 100.471L195.179 102.966L188.68 105.467L188.64 105.482L188.598 105.49L181.098 106.99L181.074 106.995L181.05 106.997L171.05 107.997L171.025 108H162.945L162.892 107.988L153.892 105.988L153.862 105.98L139.862 101.98L139.813 101.967L128.269 95.9434L128.261 95.9395L128.254 95.9346L113.265 87.4404L105.783 83.4512L100.835 81.4717L95.5615 79.8496L96.9209 82.2285L99.4072 85.709L99.4385 85.7529L99.46 85.8027L100.96 89.3027L100.985 89.3643L100.995 89.4297L101.495 92.9297L101.503 92.9824L101.499 93.0352L100.999 100.035L100.945 100.782L100.276 100.447L98.2764 99.4473L98.1406 99.3799L98.0654 99.248L94.0654 92.248V92.2471L91.5967 88.2988L88.6465 84.8564L85.7041 82.4043L81.8291 79.9824L78.0098 79.5049L75.1436 79.9824L71.7471 81.4385L68.3643 83.8545L67.7568 84.7646L69.6855 85.5361L69.6973 85.54L73.1973 87.04L73.2236 87.0518L73.248 87.0654L76.8232 89.1084L76.8799 89.1748L79.8799 92.6748L79.9102 92.7109L79.9346 92.752L81.9131 96.2158L84.3838 99.1797L84.4014 99.2002L84.416 99.2227L86.4531 102.278L86.4746 102.342L87.9746 106.842L87.9805 106.86L87.9854 106.879L88.4854 108.879L88.7334 109.873L87.7969 109.457L83.3262 107.47L79.9307 106.5H76.0488L73.6758 106.974L69.3408 109.382L66.9072 112.791L63.9287 117.258L61.9385 120.741L59.9648 124.688L58.4785 129.644L58.4707 129.671L58.46 129.697L56.9746 133.161L55.4922 139.094L54.998 143.044L54.5 150.021V157.971L54.9971 162.444L55.0332 162.775L54.7432 162.938L50.2549 165.431L44.2773 169.416L41.3066 171.396L36.8408 175.366L32.3682 179.839L29.3799 183.325L25.9258 187.766L23.9473 191.724L21.957 195.704L20.4697 199.173L19.4844 202.62L19.4854 202.621L18.5 206.562V220.964L18.9902 224.396L19.9668 227.816L21.4473 230.776L21.4541 230.789L22.9365 234.248L24.25 236H24.5264L25.501 217.474L26.4893 217.396L27.9854 224.379L28.9883 228.391L28.9902 228.402L29.9785 233.348L31.46 236.803L31.4648 236.816L31.4697 236.829L33.4619 242.309L35.4443 246.769L39.4258 253.238L39.4375 253.257L42.4229 259.228L46.3838 264.179L50.3555 268.646L54.3291 272.124L54.3418 272.135L59.8271 277.62L63.792 280.594L66.7715 282.58L69.2568 284.071L69.2676 284.077L69.2773 284.084L70.4355 284.856L70.8789 284.413L68.5625 280.243L68.5508 280.221L68.54 280.197L67.041 276.7L65.0283 272.675L65.0146 272.621L64.0146 268.621V268.62L63.0195 265.138L63.0049 265.089L63.002 265.038L62.502 258.538L63.457 258.297L65.4453 262.772L67.9336 267.25L71.4219 272.731L71.4287 272.743L74.4131 277.717L77.8896 282.188L81.8906 287.188L88.3652 294.658L96.3535 302.646L96.3633 302.655L96.3721 302.666L100.872 307.666L101.828 308.729L100.418 308.493L94.418 307.493L94.333 307.479L94.2568 307.438L89.7568 304.938L83.7432 301.931L83.7129 301.909L78.7129 298.409L73.7441 294.931L71.7822 293.95L60.8096 288.962L55.3291 286.97L55.2725 286.949L50.6816 283.889L46.6465 279.854L46.6367 279.845L37.6279 269.835L37.6006 269.804L37.5781 269.769L34.0879 264.284L30.626 259.833L28.6553 257.862L24.6396 254.349L20.0869 248.784L20.0654 248.748L16.0654 241.748L16.0518 241.724L16.04 241.697L13.04 234.697L13.0283 234.668L13.0195 234.638L11.0195 227.638L11.0137 227.618L11.0098 227.598L9.50977 220.098L9.5 220.05V205.45L9.50977 205.402L11.0098 197.902L11.0117 197.894L11.0137 197.886L13.0137 189.386L13.0264 189.329L16.5664 182.249L19.5918 177.711L19.5996 177.7L22.5996 173.7L22.6289 173.662L22.6641 173.63L28.1641 168.63L28.168 168.626L32.668 164.626L32.6895 164.607L32.7129 164.591L37.6953 161.103L40.6797 158.616L40.7061 158.594L40.7354 158.576L44.7227 156.084L46 155.232V142.45L46.0098 142.402L47.5098 134.902L47.5137 134.882L47.5195 134.862L49.5195 127.862L49.5234 127.85L52.5234 118.35L54.375 111.866L46.3857 109.986L46.3721 109.983L46.3594 109.979L37.8594 107.479L37.834 107.473L37.8096 107.462L29.293 103.955L29.2764 103.947L21.249 99.9336L13.6816 94.8887L8.11133 89.3184L4.08398 83.2773L4.06152 83.2441L4.04492 83.207L1.54492 77.707L1.53418 77.6826L1.52539 77.6582L0.0253906 73.1582L0 73.0811V62.9326L1.51758 57.3682L1.54785 57.2578L1.62402 57.1709L5.12402 53.1709L5.13477 53.1582L10.1855 48.1074L10.2314 48.0781L15.7314 44.5781L15.7383 44.5742L22.2383 40.5742L22.2627 40.5596L22.2881 40.5469L29.832 37.0264L37.8789 35.0146L44.8623 33.0195L44.8896 33.0117L44.918 33.0068L53.959 31.5H73.5459L73.5908 31.5088L86.8047 33.9551L92.1182 27.6768L92.1377 27.6543L92.1602 27.6338L99.1602 21.1338L99.1836 21.1113L99.2109 21.0918C101.807 19.2498 106.221 16.3412 111.04 13.5908C115.852 10.845 121.102 8.23674 125.362 7.01953C133.712 4.63377 138.501 3.68847 139.91 3.50781L150.91 1.50781L150.92 1.50684L150.93 1.50488L157.93 0.504883L157.965 0.5H165.035L165.07 0.504883L172.07 1.50488L172.08 1.50684L172.09 1.50781L177.59 2.50781L177.598 2.50977L182.429 3.47559L186.276 1.55273L186.318 1.53223L186.362 1.51953L189.862 0.519531L189.899 0.508789L193.938 0.00390625L193.969 0H199.073L199.144 0.0214844ZM76.252 119.565C79.1809 117.892 82.39 117.728 85.1807 118.182C87.7941 118.607 90.0779 119.578 91.4941 120.411L91.7656 120.576L91.7832 120.587L91.7998 120.6L93.7998 122.1L93.8691 122.151L93.916 122.223L95.9072 125.209L98.4072 128.709L98.4238 128.732L98.4375 128.757L100.938 133.257L100.96 133.298L102.475 137.842L102.478 137.852L102.481 137.862L103.481 141.362L103.491 141.399L103.496 141.438L104 145.469V157.531L103.996 157.562L103.566 161H120.062L120.121 161.015L122.121 161.515L122.205 161.536L122.277 161.584L125.258 163.571L127.758 165.071L127.786 165.089L127.812 165.109L130.312 167.109L130.334 167.127L132.411 169.204L133.963 172.308L133.975 172.342L134.975 175.342L134.987 175.379L134.993 175.418L135.493 178.418L135.5 178.458V185.55L135.49 185.598L134.99 188.098L134.986 188.118L134.981 188.138L133.981 191.638L133.965 191.695L133.935 191.748L131.935 195.248L131.922 195.27L129.383 198.824L124.84 203.367L124.825 203.38L121.325 206.38L121.303 206.399L121.277 206.416L118.277 208.416L118.268 208.423L115.729 209.946L115.697 209.959L112.218 211.45L108.192 213.463L108.158 213.475L100.658 215.975L98.5713 216.809L98.9805 218.854L100.938 223.746L102.885 226.18L105.339 229.125L108.266 231.076L112.214 233.544L116.658 235.025L123.614 237.013L128.571 238.004L134.519 238.5H139.977L145.451 238.002L149.411 237.507L153.865 236.518L158.324 235.031L161.804 233.54L166.268 231.556L170.223 229.084L173.201 227.098L176.18 224.616L179.638 221.651L181.609 219.188L181.627 219.166L183.646 217.146L186.6 214.192L188.566 210.752L188.571 210.742L189.771 208.74L181.81 205.462L181.246 205.229L182.584 203.223L182.632 203.151L182.7 203.1L184.7 201.6L184.791 201.532L184.902 201.51L187.451 201H190.022L190.046 201.002L195.567 201.504L195.59 201.508L201.09 202.508L201.171 202.522L201.243 202.562L205.805 205.097L205.854 205.146L208.911 208.204L212.447 215.276L212.979 216.34L211.848 215.976L198.5 211.685V217.57L198.481 217.638L196.481 224.638L196.477 224.652L196.471 224.668L193.971 231.668L193.967 231.681L193.5 231.5L193.966 231.681L190.466 240.681L190.46 240.697L190.452 240.713L186.452 249.213L186.441 249.237L186.427 249.261L180.927 258.261L180.914 258.281L180.9 258.3L176.4 264.3L176.379 264.328L170.345 270.362L165.335 274.871L165.313 274.891L165.291 274.906L154.791 282.406L154.75 282.437L154.703 282.457L145.703 286.457L145.671 286.471L145.638 286.48L138.638 288.48L138.57 288.5H121.461L121.421 288.493L108.921 286.493L108.861 286.484L108.807 286.461L99.3066 282.461L99.2646 282.443L99.2275 282.419L89.2275 275.919L89.1641 275.878L89.1162 275.82C88.2839 274.821 85.5175 271.522 81.1182 266.323C78.853 263.646 77.0374 259.443 75.6875 255.331C74.3924 251.386 73.51 247.464 73.0674 244.923L70.9023 244.49L68.4023 243.99L68.3359 243.977L68.2764 243.947L63.29 241.454L58.3145 239.464L58.2773 239.449L55.7139 237.911L55.6875 237.891L50.6875 233.891L50.6445 233.855L50.6094 233.812L48.6465 231.359L46.7002 229.899L46.6494 229.861L46.6094 229.812L44.6094 227.312L44.6045 227.306L44.5996 227.3L43.0996 225.3L43.0918 225.289L42.0586 223.739L42.04 223.697L40.54 220.197L40.5352 220.186V220.185L39.5361 217.686L39.5186 217.643L39.5098 217.598L39.0146 215.121L38.5146 213.121L38.5 213.062V202.95L39.0098 200.401L39.0156 200.371L40.0254 197.342L40.0303 197.328L40.0361 197.314L41.0361 194.814L41.0605 194.753L41.0996 194.7L44.0996 190.7L44.1211 190.672L46.666 188.127L46.6875 188.109L49.1875 186.109L49.2451 186.063L49.3145 186.035L51.8145 185.035L51.8701 185.014L51.9297 185.005L55.4297 184.505L56.9141 184.293L54.875 186.332L52.9229 188.771L51.4473 191.724L49.9541 194.71L48.9639 197.186L47.9863 199.628L47.5049 202.999L47.9951 206.429L47.9961 206.438L48.4951 210.43L48.9805 213.343L50.4385 216.259L52.4287 219.741L54.3887 222.682L57.3389 225.632L60.7939 228.594L63.2227 230.051L66.6973 231.54L66.7031 231.543L71.1797 233.532L74.082 234.5H80.9512L83.3682 234.017L86.292 233.042L88.7773 231.551L88.8145 231.535L91.1836 230.587L92.4531 228.894L90.5166 221.629L90.5088 221.6L90.5049 221.57L90.0059 218.08L89.5664 215.883L88.3867 215.489L84.4375 214.996L84.4023 214.991L84.3682 214.982L78.8682 213.482L78.832 213.473L74.2969 211.457L74.2686 211.444L74.2432 211.429L71.7432 209.929L71.6904 209.896L71.6465 209.854L70.1816 208.389L68.6816 207.389L66.6689 205.376L64.7002 203.899L64.6318 203.849L64.584 203.777L62.6113 200.818L61.5889 199.796L60.5527 197.724L60.5225 197.664L60.5098 197.598L60.0098 195.098L60 195.05V188.95L60.5137 186.382L60.5195 186.362L61.5195 182.862L61.5322 182.817L62.5527 180.776L62.5732 180.736L62.5996 180.7L64.0996 178.7L64.1045 178.693L64.1094 178.688L66.1094 176.188L67.5996 174.2L67.6709 174.105L67.7764 174.053L69.7275 173.076L72.1875 171.109L72.1934 171.104L72.2002 171.1L74.1729 169.62L75.5 168.293V161.969L76.0039 157.938L76.0049 157.929L76.5049 154.43L76.5117 154.385L76.5254 154.342L77.5254 151.342L77.5303 151.328L77.5361 151.314L78.5361 148.814L78.5605 148.753L78.5996 148.7L80.084 146.721L81.5713 144.242L81.6582 144.099L81.8145 144.035L84.3145 143.035L84.4033 143H88.0703L88.1377 143.02L91.6377 144.02L91.7617 144.055L94.3535 146.646L94.376 146.668L94.3945 146.693L96.8066 149.795L96.5049 147.07L96.0127 143.628L95.0508 141.224L93.5713 138.757L93.5654 138.748L91.584 135.281L89.667 132.885L86.3359 130.981L82.9639 130.5H80.5488L78.1953 130.971L75.3184 132.889L72.875 135.332L70.915 137.781L68.9717 141.183L67.9922 145.588L67.4961 149.562L67 154.521V159.959L67.4932 162.918L67.4961 162.934L67.4971 162.95L67.9971 167.95L68.1367 169.344L65.6025 166.81L65.5713 166.757L64.0713 164.257L64.043 164.21L64.0254 164.158L62.5254 159.658L62.5117 159.615L62.5049 159.57L62.0049 156.07L62 156.035V148.973L62.0029 148.944L62.5 144.471V140.959L63.0068 137.918L63.0195 137.844L63.0527 137.776L64.043 135.796L65.5459 132.289L65.5527 132.276L66.543 130.296L68.04 126.803L68.0674 126.74L68.1094 126.688L69.9326 124.407C69.9325 124.404 69.9327 124.401 69.9326 124.398C69.9294 124.206 70.0084 124.037 70.082 123.916C70.2354 123.664 70.5234 123.364 70.9541 123.004C71.8302 122.271 73.4444 121.17 76.252 119.565ZM101.001 238.023L101.501 248.523V248.539L101.503 248.556L102.003 253.056L102.005 253.068L102.007 253.082L102.509 256.094L102.511 256.104L104.006 263.084L104.192 264.953L103.472 263.331L101.982 257.868L99.9834 250.371L97.4893 238.398L97.375 237.848L95.333 238.528L95.3242 238.532L87.3711 241.515L81.418 242.507L80.9248 242.589L81.0068 243.082L82.0029 249.062H82.0039L82.5039 253.062L82.5107 253.12L82.5322 253.176L84.0322 257.176L84.04 257.197L85.54 260.697L85.5586 260.739L87.584 263.777L87.5889 263.784L87.5928 263.791L90.0928 267.291L90.1172 267.324L92.166 269.373L92.1875 269.391L94.6875 271.391L94.7051 271.404L97.7783 273.453L97.8418 273.475L100.842 274.475L100.879 274.486L100.918 274.493L103.918 274.993L103.945 274.998L103.974 274.999L113.474 275.499L113.487 275.5H116.081L116.158 275.475L119.158 274.475L119.172 274.47L119.186 274.464L121.705 273.456L121.724 273.447L123.796 272.411L126.897 269.31L126.929 269.257L128.429 266.757L128.438 266.741L129.947 263.724L129.978 263.664L129.99 263.598L130.49 261.098L130.5 261.05V246.5H127.029L122.582 246.006L118.139 245.019L114.176 243.532L109.21 241.546L106.243 240.062L101.743 237.562L100.958 237.127L101.001 238.023ZM182.598 111.51L185.098 112.01L185.164 112.022L185.224 112.053L188.241 113.562L188.257 113.571L190.757 115.071L190.779 115.085L190.8 115.1L192.8 116.6L192.807 116.604L192.812 116.609L195.312 118.609L195.355 118.645L195.391 118.688L199.391 123.688L199.411 123.714L200.929 126.243L200.938 126.259L202.447 129.276L202.454 129.289L205.46 136.303L205.485 136.364L205.495 136.43L205.995 139.93L205.996 139.939L205.997 139.95L206.497 144.95L206.5 144.975V151.522L206.498 151.545L205.997 157.056L205.497 161.556L205.492 161.597L205.48 161.638L204.484 165.12L204.485 165.121L203.622 168.573L207.062 169.004L207.092 169.008L207.121 169.015L211.121 170.015L211.175 170.028L214.21 171.546L216.686 172.536L216.755 172.563L216.812 172.609L219.298 174.598L222.318 176.611L228.854 183.146L228.32 183.967L221.854 181.479L217.392 180.488L217.366 180.482L217.342 180.475L212.896 178.992L206.981 178.5H196.547L191.11 179.488L186.188 180.965L182.224 182.947L182.208 182.955L182.192 182.962L176.221 185.449L169.248 189.435L167.953 190.174L168.54 188.803L170.032 185.319L171.025 182.342L171.052 182.265L171.1 182.2L172.6 180.2L172.621 180.172L174.182 178.611L174.223 178.584L175.215 177.922L172.111 174.818L170.059 171.739L170.04 171.697L168.54 168.197L168.532 168.176L167.032 164.176L167.013 164.125L166.505 160.57L166.5 160.535V154.975L166.503 154.95L167.003 149.95L167.005 149.926L167.01 149.902L167.51 147.402L167.519 147.356L167.536 147.314L168.536 144.814L168.551 144.777L170.071 142.243L170.122 142.159L170.2 142.1L172.2 140.6L172.253 140.561L172.314 140.536L174.814 139.536L174.828 139.53L174.842 139.525L177.842 138.525L177.919 138.5H184.167L186.351 140.138L186.391 140.188L188.391 142.688L188.424 142.729L189.947 145.776L189.954 145.789L191.46 149.303L191.478 149.346L191.488 149.392L192.488 153.892L192.493 153.915L192.496 153.938L193 157.969V167.035L192.995 167.07L192.53 170.323L192.89 170.683L194.551 167.776L196.511 162.875L197.001 158.954L197.499 151.497L197.004 145.064L196.015 139.134L194.056 134.235L192.101 131.303L189.145 127.854L185.74 124.937L181.824 123.468L181.814 123.464L179.404 122.5H172.082L169.221 123.453L166.277 125.416L163.337 127.376L160.884 130.32L158.408 133.291L155.458 138.208L154.48 141.141L153.489 145.104L152.495 150.57L152 156.023V160.452L153.991 170.906L153.04 171.197L151.543 167.704L149.54 163.698L149.53 163.671L147.53 158.171L147.514 158.125L147.506 158.076L146.5 151.538V138.95L146.51 138.902L147.006 136.419L147.505 132.93L147.519 132.835L147.565 132.752L149.562 129.259L151.553 125.276L151.579 125.225L151.616 125.18L154.116 122.18L154.143 122.147L154.175 122.12L157.675 119.12L157.681 119.115L157.688 119.109L160.188 117.109L160.193 117.104L160.2 117.1L162.2 115.6L162.265 115.552L162.342 115.525L165.31 114.536L168.276 113.053L168.309 113.037L168.342 113.025L171.342 112.025L171.385 112.012L171.43 112.005L174.93 111.505L174.965 111.5H182.55L182.598 111.51ZM279.658 94.0254L284.158 95.5254L285.381 95.9336L275.212 100.453L272.233 101.941L269.54 103.543L270.262 104.071L272.224 105.053L272.271 105.076L272.312 105.109L274.812 107.109L274.883 107.166L274.929 107.243L276.429 109.743L276.478 109.824L276.993 112.918L276.997 112.939L276.998 112.962L277.498 119.462L277.506 119.562L277.475 119.658L276.475 122.658L276.448 122.735L276.399 122.8L273.4 126.8L271.854 128.862L271.791 128.907L268.291 131.407L268.237 131.445L268.176 131.468L264.176 132.968L264.091 133H253.965L253.93 132.995L250.43 132.495L250.294 132.476L250.188 132.391L247.688 130.391L247.617 130.334L247.571 130.257L246.071 127.757L246 127.639V119.397L246.04 119.303L247.54 115.803L247.552 115.776L247.565 115.752L249.581 112.225L249.6 112.2L252.6 108.2L252.607 108.189L252.616 108.18L255.116 105.18L255.141 105.149L255.171 105.124L259.171 101.624L259.191 101.605L259.213 101.591L264.213 98.0908L264.227 98.0811L264.241 98.0723L268.377 95.5723L268.432 95.5391L268.493 95.5205L271.857 94.5205L271.896 94.5088L271.938 94.5039L275.969 94H279.581L279.658 94.0254Z" fill="#1B1714" fill-opacity="1"/>
</g>
</svg>
